<svg width="200" height="200" viewBox="0 0 200 200" fill="none" xmlns="http://www.w3.org/2000/svg">
<mask id="mask0_180_177" style="mask-type:luminance" maskUnits="userSpaceOnUse" x="0" y="0" width="200" height="200">
<path d="M0 1.90735e-06H200V200H0V1.90735e-06Z" fill="white"/>
</mask>
<path d="M194.737 142.105C194.737 171.168 152.321 194.737 100 194.737C47.6789 194.737 5.26316 171.168 5.26316 142.105C5.26316 113.042 47.6789 89.4737 100 89.4737C152.321 89.4737 194.737 113.042 194.737 142.105Z" fill="#99AAB5"/>
<path d="M194.737 131.579C194.737 160.642 152.321 184.211 100 184.211C47.6789 184.211 5.26316 160.642 5.26316 131.579C5.26316 102.516 47.6789 78.9474 100 78.9474C152.321 78.9474 194.737 102.516 194.737 131.579Z" fill="#CCD6DD"/>
<path d="M100 168.421C21.2737 168.421 10.5263 89.4737 10.5263 68.4211H189.474C189.474 78.9474 179.168 168.421 100 168.421Z" fill="#F5F8FA"/>
<path d="M173.063 41.8526C165.921 36.9158 156.732 32.9368 146.111 30.0105C155.979 26.9789 170.063 28.3842 173.063 41.8526ZM186.237 56.021C199.089 2.74736 134.758 15.4632 122.005 25.5053C114.953 24.7211 107.605 24.2737 100 24.2737C50.5842 24.2737 10.5263 41.2632 10.5263 68.7158C10.5263 96.1684 50.5842 118.421 100 118.421C149.416 118.421 189.474 96.1684 189.474 68.7158C189.474 64.1789 188.289 59.9579 186.237 56.021Z" fill="#CCD6DD"/>
<mask id="mask1_180_177" style="mask-type:luminance" maskUnits="userSpaceOnUse" x="0" y="0" width="200" height="200">
<path d="M0 1.90735e-06H200V200H0V1.90735e-06Z" fill="white"/>
</mask>
<path d="M178.947 73.6842C178.947 94.0316 143.6 110.526 100 110.526C56.4 110.526 21.0526 94.0316 21.0526 73.6842C21.0526 53.3368 56.4 36.8421 100 36.8421C143.6 36.8421 178.947 53.3368 178.947 73.6842Z" fill="#8A4B38"/>
<path d="M110.526 94.7368C109.835 94.7376 109.151 94.6017 108.512 94.337C107.873 94.0724 107.293 93.6842 106.805 93.1947C94.5053 80.8947 94.3 67.4842 106.147 49.7105C110.037 43.8737 110.884 37.8947 108.663 31.9368C106.237 25.4368 101.095 21.4316 99.5526 21.0105C96.6421 21.0105 94.5105 18.6737 94.5105 15.7684C94.5105 12.8579 97.0947 10.5263 100 10.5263C105.247 10.5263 112.605 16.5947 116.753 24.3421C122.195 34.5158 121.542 45.6 114.905 55.5526C104.584 71.0368 106.847 78.3526 114.247 85.7526C114.986 86.4877 115.489 87.4256 115.694 88.4473C115.898 89.4689 115.794 90.5283 115.396 91.4909C114.997 92.4535 114.321 93.276 113.454 93.8539C112.587 94.4318 111.568 94.7391 110.526 94.7368ZM78.9474 84.2105C78.2561 84.2112 77.5716 84.0754 76.933 83.8107C76.2944 83.5461 75.7144 83.1579 75.2263 82.6684C62.9263 70.3684 62.7211 56.9579 74.5684 39.1842C78.3947 33.4421 79.2737 28.2263 77.1684 23.6737C74.8316 18.6158 69.6368 15.9421 68.3053 15.7842C67.6174 15.7835 66.9366 15.6467 66.3019 15.3816C65.6672 15.1165 65.0913 14.7283 64.6074 14.2395C64.1235 13.7507 63.7412 13.1709 63.4825 12.5336C63.2237 11.8963 63.0937 11.2141 63.1 10.5263C63.1 7.61579 65.5158 5.26316 68.4211 5.26316C73.6684 5.26316 82.0211 10.3895 86.1053 18.0158C88.6368 22.7474 91.6474 32.5474 83.3263 45.0263C73.0053 60.5105 75.2684 67.8263 82.6684 75.2263C83.4068 75.9614 83.9102 76.8993 84.1147 77.9209C84.3191 78.9426 84.2154 80.002 83.8167 80.9646C83.418 81.9272 82.7423 82.7497 81.8753 83.3276C81.0084 83.9055 79.9893 84.2128 78.9474 84.2105Z" fill="#D99E82"/>
</svg>
