<svg width="200" height="200" viewBox="0 0 200 200" fill="none" xmlns="http://www.w3.org/2000/svg">
<path d="M109.063 63.2704C108.9 62.6218 108.526 62.0461 107.999 61.6348C107.472 61.2234 106.822 61 106.154 61H92.8374C92.1688 61 91.5194 61.2234 90.9923 61.6348C90.4652 62.0461 90.0907 62.6218 89.9282 63.2704L87.9488 71.2002C87.8511 71.5902 87.6759 71.9566 87.4338 72.2776C87.1916 72.5986 86.8874 72.8676 86.5392 73.0687L82.6672 75.309C82.3183 75.5104 81.9324 75.6394 81.5325 75.6884C81.1327 75.7373 80.7271 75.7052 80.3399 75.594L72.482 73.3446C71.8384 73.1601 71.1515 73.1963 70.5308 73.4474C69.9101 73.6985 69.3913 74.1501 69.057 74.7302L62.4018 86.259C62.0674 86.8383 61.9362 87.5128 62.0291 88.1753C62.122 88.8377 62.4337 89.4501 62.9147 89.915L68.7931 95.5984C69.0824 95.8781 69.3125 96.2132 69.4697 96.5836C69.6268 96.9541 69.7078 97.3524 69.7078 97.7548V102.224C69.7082 102.627 69.6274 103.025 69.4703 103.396C69.3131 103.767 69.0828 104.103 68.7931 104.383L62.9147 110.063C62.4335 110.529 62.1219 111.142 62.0295 111.805C61.9371 112.468 62.0692 113.143 62.4048 113.722L69.057 125.248C69.3916 125.827 69.9101 126.278 70.5302 126.528C71.1502 126.779 71.8361 126.815 72.479 126.631L80.3069 124.393C80.7038 124.28 81.12 124.25 81.5292 124.304C81.9385 124.359 82.332 124.498 82.6852 124.711L85.5734 126.463C86.1819 126.833 86.639 127.407 86.8631 128.082L89.8143 136.93C90.0138 137.527 90.396 138.046 90.9068 138.414C91.4176 138.781 92.0311 138.979 92.6605 138.978H106.331C106.96 138.979 107.574 138.781 108.085 138.412C108.596 138.044 108.978 137.524 109.177 136.927L112.122 128.088C112.349 127.408 112.811 126.831 113.427 126.463L116.372 124.702C116.725 124.491 117.117 124.355 117.524 124.302C117.932 124.249 118.346 124.28 118.741 124.393L126.509 126.628C127.152 126.813 127.839 126.777 128.46 126.526C129.08 126.276 129.599 125.825 129.934 125.245L136.598 113.704C136.931 113.128 137.062 112.458 136.972 111.799C136.882 111.14 136.575 110.529 136.1 110.063L130.303 104.377C130.019 104.098 129.793 103.765 129.638 103.398C129.484 103.031 129.404 102.637 129.403 102.239V97.7398C129.404 97.3415 129.484 96.9473 129.638 96.5801C129.793 96.213 130.019 95.8803 130.303 95.6014L136.1 89.915C136.575 89.4493 136.882 88.8388 136.972 88.1797C137.062 87.5206 136.931 86.8502 136.598 86.274L129.934 74.7332C129.599 74.1541 129.08 73.7038 128.459 73.4538C127.838 73.2038 127.152 73.1685 126.509 73.3536L118.711 75.594C118.325 75.7053 117.921 75.7379 117.522 75.69C117.124 75.6421 116.738 75.5146 116.39 75.315L112.461 73.0657C112.11 72.8652 111.803 72.5958 111.559 72.2736C111.314 71.9515 111.138 71.5833 111.039 71.1912L109.06 63.2734L109.063 63.2704Z" fill="#535358"/>
<path d="M100 115C108.284 115 115 108.284 115 100C115 91.7157 108.284 85 100 85C91.7157 85 85 91.7157 85 100C85 108.284 91.7157 115 100 115Z" fill="white"/>
</svg>
