<svg width="200" height="200" viewBox="0 0 200 200" fill="none" xmlns="http://www.w3.org/2000/svg">
<path d="M144.584 184.167H55.8333L63.3333 171.25L64.1667 170L67.4999 163.75L67.9166 163.334H132.084L132.5 163.75L135.834 170L136.667 171.25L144.584 184.167Z" fill="#CDD6E0" stroke="white" stroke-width="0.00501551"/>
<path d="M0 132.084V155.834C0 160.417 3.74998 164.167 8.33337 164.167H191.667C196.25 164.167 200 160.417 200 155.834V132.084H0Z" fill="#F2F2F2" stroke="white" stroke-width="0.00501551"/>
<path d="M200 132.084V8.33337C200 3.74998 196.25 0 191.667 0H8.33337C3.74998 0 0 3.74998 0 8.33337V132.084H200Z" fill="#40596B" stroke="white" stroke-width="0.00501551"/>
<path d="M183.75 14.1669H15.8333V117.501H183.75V14.1669Z" fill="white" stroke="white" stroke-width="0.00501551"/>
<path d="M146.667 184.167H53.3335C44.5834 184.167 37.5002 191.25 37.5002 200H162.5C162.5 191.25 155.417 184.167 146.667 184.167Z" fill="#F2F2F2" stroke="white" stroke-width="0.00501551"/>
<path d="M100 153.334C102.992 153.334 105.417 150.909 105.417 147.917C105.417 144.925 102.992 142.5 100 142.5C97.0088 142.5 94.5836 144.925 94.5836 147.917C94.5836 150.909 97.0088 153.334 100 153.334Z" fill="#CDD6E0" stroke="white" stroke-width="0.00501551"/>
<path d="M135.834 170H64.1667L67.5 163.75L67.9167 163.334H132.084L132.5 163.75L135.834 170Z" fill="#C3D0DB" stroke="white" stroke-width="0.00501551"/>
</svg>
