<svg width="200" height="200" viewBox="0 0 200 200" fill="none" xmlns="http://www.w3.org/2000/svg">
<path d="M180.553 96.5053C180.553 96.5053 186.511 87.8211 177.821 81.8684C169.142 75.9158 163.189 84.6 163.189 84.6L135.553 124.905C134.605 123.316 133.558 121.747 132.4 120.2L170.758 64.2579C170.758 64.2579 176.711 55.579 168.026 49.6263C159.347 43.6684 153.395 52.3526 153.395 52.3526L117.311 104.968C115.968 103.868 114.6 102.774 113.179 101.695L155.005 40.6947C155.005 40.6947 160.958 32.0158 152.279 26.0632C143.6 20.1053 137.647 28.7895 137.647 28.7895L95.8158 89.7842C94.2789 88.8368 92.7579 88.0211 91.2368 87.1632L130.326 30.1526C130.326 30.1526 136.279 21.4737 127.595 15.521C118.916 9.56315 112.963 18.2474 112.963 18.2474L71.6263 78.5263L68.3158 83.3579L65.3421 87.7C91.3842 105.558 93.8631 139.168 78.9842 160.868C76.0053 165.211 71.6684 162.237 71.6684 162.237C89.5263 136.189 84.0684 106.921 58.021 89.0632L65.7158 50.6316C65.7158 50.6316 68.5842 40.5 58.4579 37.6316C48.3316 34.7632 45.4631 44.8895 45.4631 44.8895L36.5947 71.2263C33.0789 81.6684 29.3368 92.0737 24.3842 101.911C10.4 129.7 18.7526 164.242 45.1263 182.326C73.8895 202.047 113.205 194.721 132.932 165.958C133.974 164.432 134.847 162.942 135.679 161.453L135.911 161.616L180.553 96.5053Z" fill="#A47762"/>
<path d="M5.48419 42.1053H16.0105C16.0105 27.7158 27.721 16.0105 42.1052 16.0105V5.48421C21.9158 5.48421 5.48419 21.9105 5.48419 42.1053ZM15.7895 68.421H26.3158C26.3158 45.2053 45.2053 26.3158 68.4211 26.3158V15.7895C39.4 15.7895 15.7895 39.4 15.7895 68.421ZM157.895 194.737V184.211C173.684 184.211 184.21 173.684 184.21 157.895H194.737C194.737 178.947 178.947 194.737 157.895 194.737ZM131.579 173.905V184.432C163.158 184.432 184.432 163.158 184.432 131.579H173.905C173.905 152.632 152.632 173.905 131.579 173.905Z" fill="#197E59"/>
</svg>
